# AST/ASF file generated using VICON BodyLanguage
# -----------------------------------------------
:version 1.10
:name VICON
:units
  mass 1.0
  length 0.45
  angle deg
:documentation
   .ast/.asf automatically generated from VICON data using
   VICON BodyBuilder and BodyLanguage model FoxedUp or BRILLIANT.MOD
:root
   order TX TY TZ RX RY RZ
   axis XYZ
   position 0 0 0  
   orientation 0 0 0 
:bonedata
  begin
     id 1 
     name lhipjoint
     direction 0.662698 -0.695252 0.27831 
     length 2.53073 
     axis 0 0 0  XYZ
  end
  begin
     id 2 
     name lfemur
     direction 0.34202 -0.939693 0  
     length 7.16147  
     axis 0 0 20  XYZ
    dof rx ry rz
    limits (-160.0 20.0)
           (-70.0 70.0)
           (-60.0 70.0)
  end
  begin
     id 3 
     name ltibia
     direction 0.34202 -0.939693 0   
     length 7.63967   
     axis 0 0 20   XYZ
    dof rx
    limits (-10.0 170.0)
  end
  begin
     id 4 
     name lfoot
     direction 0.0938457 -0.257721 0.961651   
     length 1.89793   
     axis -90 7.62852e-016 20   XYZ
    dof rx rz
    limits (-45.0 90.0)
           (-70.0 20.0)
  end
  begin
     id 5 
     name ltoes
     direction -0.00116841 -0.0030592 0.999995   
     length 0.955649   
     axis -90 7.62852e-016 20   XYZ
    dof rx
    limits (-90.0 20.0)
  end
  begin
     id 6 
     name rhipjoint
     direction -0.649445 -0.705948 0.282592   
     length 2.49238  
     axis 0 0 0  XYZ 
  end
  begin
     id 7 
     name rfemur
     direction -0.34202 -0.939693 0   
     length 6.90728   
     axis 0 0 -20   XYZ
    dof rx ry rz
    limits (-160.0 20.0)
           (-70.0 70.0)
           (-70.0 60.0)
  end
  begin
     id 8 
     name rtibia
     direction -0.34202 -0.939693 0   
     length 7.72868   
     axis 0 0 -20   XYZ
    dof rx
    limits (-10.0 170.0)
 end
 begin
     id 9 
     name rfoot
     direction -0.0920068 -0.252865 0.963117   
     length 1.97476  
     axis -90 -7.62852e-016 -20   XYZ
    dof rx rz
    limits (-45.0 90.0)
           (-20.0 70.0)
  end
  begin
     id 10 
     name rtoes
     direction 0.000391322 0.00230649 0.999997   
     length 0.992641   
     axis -90 -7.62852e-016 -20   XYZ
    dof rx
    limits (-90.0 20.0)
  end
  begin
     id 11 
     name lowerback
     direction -0.00875327 0.998321 -0.0572635   
     length 2.20024   
     axis 0 0 0   XYZ
    dof rx ry rz
    limits (-20.0 45.0)
           (-30.0 30.0)
           (-30.0 30.0)
  end
  begin
     id 12 
     name upperback
     direction 0.00753931 0.999972 -0.000360425   
     length 2.20538   
     axis 0 0 0   XYZ
    dof rx ry rz
    limits (-20.0 45.0)
           (-30.0 30.0)
           (-30.0 30.0)
  end
  begin
     id 13 
     name thorax
     direction 0.0117767 0.999601 0.0256663   
     length 2.21508   
     axis 0 0 0   XYZ
    dof rx ry rz
    limits (-20.0 45.0)
           (-30.0 30.0)
           (-30.0 30.0)
  end
  begin
     id 14 
     name lowerneck
     direction 0.060228 0.994909 0.0807986   
     length 1.7607   
     axis 0 0 0   XYZ
    dof rx ry rz
    limits (-20.0 45.0)
           (-30.0 30.0)
           (-30.0 30.0)
  end
  begin
     id 15 
     name upperneck
     direction -0.0563647 0.959594 -0.275685   
     length 1.75612   
     axis 0 0 0   XYZ
    dof rx ry rz
    limits (-20.0 45.0)
           (-30.0 30.0)
           (-30.0 30.0)
  end
  begin
     id 16
     name head
     direction -0.0161544 0.99458 -0.102714  
     length 1.79288  
     axis 0 0 0   XYZ
    dof rx ry rz
    limits (-20.0 45.0)
           (-30.0 30.0)
           (-30.0 30.0)
  end
  begin
     id 17 
     name lclavicle
     direction 0.93913 0.332189 -0.087669  
     length 3.52087  
     axis 0 0 0   XYZ
    dof ry rz
    limits (-20.0 10.0)
           (0.0 20.0)
  end
  begin
     id 18 
     name lhumerus
     direction 1 -4.48974e-011 -2.70836e-027   
     length 5.35289   
     axis -180 -30 -90   XYZ
    dof rx ry rz
    limits (-60.0 90.0)
           (-90.0 90.0)
           (-90.0 90.0)
  end
  begin
     id 19
     name lradius
     direction 1 -4.48961e-011 -9.76021e-027   
     length 3.27727   
     axis -180 -30 -90   XYZ
    dof rx
    limits (-10.0 170.0)
  end
  begin
     id 20
     name lwrist
     direction 1 -4.49103e-011 -2.23668e-026   
     length 1.63864   
     axis 1.44924e-014 90 90   XYZ
    dof ry
    limits (-180.0 0.0)
 end
  begin
     id 21 
     name lhand
     direction 1 3.0697e-005 0.000161777   
     length 0.54443   
     axis 2.85318e-014 90 90   XYZ
    dof rx rz
    limits (-90.0 90.0)
           (-45.0 45.0)
  end
  begin
     id 22 
     name lfingers
     direction 1 -4.49027e-011 -8.9447e-026   
     length 0.438912   
     axis 5.70628e-014 90 90   XYZ
    dof rx
    limits (0.0 90.0)
  end
  begin
     id 23
     name lthumb
     direction 0.707058 2.6516e-005 0.707156   
     length 0.630274   
     axis -90 45 -3.53137e-014   XYZ
    dof rx rz
    limits (-45.0 45.0)
           (-45.0 45.0)
  end
  begin
     id 24 
     name rclavicle
     direction -0.95274 0.284984 -0.105215   
     length 3.43401  
     axis 0 0 0   XYZ 
    dof ry rz
    limits (-10.0 20.0)
           (-20.0 0.0)
  end
  begin
     id 25 
     name rhumerus
     direction -0.999999 -0.000575019 -0.00106829  
     length 5.52077   
     axis -180 30 90   XYZ
    dof rx ry rz
    limits (-90.0 60.0)
           (-90.0 90.0)
           (-90.0 90.0)
  end
  begin
     id 26 
     name rradius
     direction -1 -4.4879e-011 -6.35415e-027   
     length 3.32364   
     axis -180 30 90   XYZ
    dof rx
    limits (-10.0 170.0)
  end
  begin
     id 27 
     name rwrist
     direction -1 -4.49048e-011 -9.98542e-027   
     length 1.66182   
     axis 6.32482e-015 -90 -90   XYZ
    dof ry
    limits (-180.0 0.0)
  end
  begin
     id 28
     name rhand
     direction -1 -4.48978e-011 -1.99771e-026   
     length 0.732235   
     axis 1.27479e-014 -90 -90   XYZ
    dof rx rz
    limits (-90.0 90.0)
           (-45.0 45.0)
  end
  begin
     id 29
     name rfingers
     direction -1 -4.49144e-011 -3.99245e-026   
     length 0.590347   
     axis 2.5496e-014 -90 -90   XYZ
    dof rx
    limits (0.0 90.0)
  end
  begin
     id 30
     name rthumb
     direction -0.707107 -6.35121e-011 0.707107   
     length 0.847624   
     axis -90 -45 -2.82974e-014   XYZ
    dof rx rz
    limits (-45.0 45.0)
           (-45.0 45.0)
  end
:hierarchy
  begin
    root lhipjoint rhipjoint lowerback
    lhipjoint lfemur
    lfemur ltibia
    ltibia lfoot
    lfoot ltoes
    rhipjoint rfemur
    rfemur rtibia
    rtibia rfoot
    rfoot rtoes
    lowerback upperback
    upperback thorax
    thorax lowerneck lclavicle rclavicle
    lowerneck upperneck
    upperneck head
    lclavicle lhumerus
    lhumerus lradius
    lradius lwrist
    lwrist lhand lthumb
    lhand lfingers
    rclavicle rhumerus
    rhumerus rradius
    rradius rwrist
    rwrist rhand rthumb
    rhand rfingers
  end

#!OML:ASF G:\Work\Work\Patient Classification 1\Elijah\terrain1\Elijah.ASF
:FULLY-SPECIFIED
:DEGREES
200
root 15.2148 19.1275 6.46039 7.90666 7.69975 3.14403
lowerback 8.15354 -0.247031 -1.20215
upperback 1.74973 -0.440154 -0.456974
thorax -2.75473 -0.20962 0.249543
lowerneck -20.1592 10.5767 10.4669
upperneck 13.8945 14.1937 -13.6398
head 9.47395 5.90218 -4.23991
rclavicle -1.41137e-014 -4.96962e-015
rhumerus -43.0831 0.0328783 -84.1035
rradius 50.12
rwrist -5.35973
rhand -14.3089 21.0039
rfingers 7.12502
rthumb 11.8312 -8.64191
lclavicle -1.41137e-014 -4.96962e-015
lhumerus -36.0122 -0.607478 83.7956
lradius 40.4316
lwrist -7.43351
lhand -13.2795 20.117
lfingers 7.12502
lthumb 12.8237 49.7031
rfemur -35.0324 5.39646 20.7335
rtibia 48.5487
rfoot 11.0184 -19.1554
rtoes -20.2344
lfemur -32.6477 -0.516127 -16.2908
ltibia 109.394
lfoot 19.9367 -20.2198
ltoes -2.58478
201
root 15.2074 19.162 6.53914 7.98593 7.31953 2.6068
lowerback 7.9149 -0.241762 -0.706737
upperback 1.81935 -0.385883 -0.371167
thorax -2.55371 -0.186802 0.0527383
lowerneck -21.2628 10.7624 9.46457
upperneck 14.9467 14.5254 -12.4694
head 9.88825 6.03656 -3.58326
rclavicle -1.76918e-014 4.57205e-015
rhumerus -42.8449 0.55017 -84.7169
rradius 51.9354
rwrist -6.61257
rhand -15.1819 21.1436
rfingers 7.12502
rthumb 10.9893 -8.54875
lclavicle -1.76918e-014 4.57205e-015
lhumerus -36.5023 -0.843835 83.827
lradius 40.4049
lwrist -8.21198
lhand -13.4818 20.2802
lfingers 7.12502
lthumb 12.6287 49.8784
rfemur -34.4908 6.21504 21.3244
rtibia 47.7982
rfoot 11.0184 -19.1554
rtoes -20.2344
lfemur -33.814 0.349646 -15.754
ltibia 110.289
lfoot 19.7932 -20.888
ltoes -4.86954
202
root 15.2028 19.2007 6.6244 8.07338 7.05672 2.421
lowerback 8.31209 -0.250777 -0.559612
upperback 1.28965 -0.393654 -0.367146
thorax -3.32326 -0.189453 -0.0215601
lowerneck -17.5497 10.0685 11.568
upperneck 12.2076 13.4666 -14.8543
head 8.53681 5.67524 -5.03526
rclavicle -1.54058e-015 1.07344e-014
rhumerus -43.8854 1.09109 -85.2804
rradius 54.0426
rwrist -7.78216
rhand -16.1485 21.2931
rfingers 7.12502
rthumb 10.0569 -8.4466
lclavicle -1.54058e-015 1.07344e-014
lhumerus -37.9006 -0.989216 83.8334
lradius 40.1215
lwrist -8.80711
lhand -14.4819 20.0222
lfingers 7.12502
lthumb 11.6644 49.6775
rfemur -33.8502 6.77211 21.5363
rtibia 46.9919
rfoot 11.0184 -19.1554
rtoes -20.2344
lfemur -35.0176 0.916513 -15.8072
ltibia 111.179
lfoot 19.3671 -21.4099
ltoes -8.61648
203
root 15.2021 19.2382 6.70751 8.14287 6.99514 2.32937
lowerback 8.36469 -0.417994 -0.519981
upperback 1.58812 -0.610337 -0.376994
thorax -3.04337 -0.298182 -0.0311212
lowerneck -20.2455 10.3146 11.1163
upperneck 13.6257 13.7262 -14.2405
head 9.43784 5.664 -4.63267
rclavicle -8.94531e-015 1.23246e-014
rhumerus -43.2969 1.61179 -85.8703
rradius 56.0454
rwrist -8.30429
rhand -16.9803 21.5412
rfingers 7.12502
rthumb 9.25435 -8.23567
lclavicle -8.94531e-015 1.23246e-014
lhumerus -37.4275 -0.629619 83.6774
lradius 39.2609
lwrist -8.99254
lhand -15.8853 19.8522
lfingers 7.12502
lthumb 10.3108 49.5795
rfemur -33.1382 6.96009 21.6795
rtibia 46.1894
rfoot 11.0184 -19.1554
rtoes -20.2344
lfemur -36.1595 1.21094 -16.0287
ltibia 112.081
lfoot 18.8682 -21.7104
ltoes -11.8377
204
root 15.1984 19.2695 6.78262 8.22209 6.80396 2.1489
lowerback 8.36549 -0.368313 -0.283619
upperback 1.51871 -0.526234 -0.435068
thorax -3.11857 -0.258776 -0.232799
lowerneck -18.6846 10.456 10.7986
upperneck 12.3676 13.9956 -14.2575
head 8.75167 5.88123 -4.58244
rclavicle 4.22417e-015 -4.37326e-015
rhumerus -43.5375 1.71447 -86.2736
rradius 57.8047
rwrist -8.45115
rhand -17.5347 21.7955
rfingers 7.12502
rthumb 8.71937 -8.00439
lclavicle 4.22417e-015 -4.37326e-015
lhumerus -37.6934 -0.81476 83.7212
lradius 38.6174
lwrist -8.62344
lhand -16.6662 20.4715
lfingers 7.12502
lthumb 9.5574 50.2348
rfemur -32.5226 7.2234 21.9221
rtibia 45.4022
rfoot 11.0184 -19.1554
rtoes -20.2344
lfemur -37.4817 1.81079 -16.051
ltibia 113.092
lfoot 18.6868 -22.2473
ltoes 0.449619
205
root 15.1925 19.2943 6.85648 8.25445 6.59731 1.96659
lowerback 8.46377 -0.322981 -0.149034
upperback 1.49155 -0.455962 -0.467728
thorax -3.20251 -0.225349 -0.349255
lowerneck -18.995 10.3253 10.9937
upperneck 12.5864 13.7965 -14.4286
head 8.88269 5.76077 -4.6976
rclavicle 1.2424e-015 -6.95746e-015
rhumerus -43.5724 1.97958 -86.693
rradius 59.2552
rwrist -8.64891
rhand -17.8649 22.0439
rfingers 7.12502
rthumb 8.40074 -7.76905
lclavicle 1.2424e-015 -6.95746e-015
lhumerus -37.8148 -0.733112 83.6577
lradius 37.9387
lwrist -7.97675
lhand -17.1851 20.8554
lfingers 7.12502
lthumb 9.05678 50.6409
rfemur -31.8878 7.51519 22.1769
rtibia 44.6372
rfoot 11.0184 -19.1554
rtoes -20.2344
lfemur -38.933 2.41 -16.0709
ltibia 114.144
lfoot 17.7592 -22.9598
ltoes -6.76013
206
root 15.1865 19.3239 6.94109 8.21135 6.53757 1.69556
lowerback 8.44709 -0.352609 0.0373031
upperback 1.6043 -0.476792 -0.434564
thorax -3.07789 -0.237181 -0.417892
lowerneck -19.6448 10.2593 10.8074
upperneck 12.9561 13.7213 -14.3208
head 9.08832 5.68517 -4.62638
rclavicle -1.15047e-014 1.10325e-014
rhumerus -43.3696 2.433 -87.1108
rradius 60.6364
rwrist -8.83473
rhand -18.182 22.3867
rfingers 7.12502
rthumb 8.09471 -7.43825
lclavicle -1.15047e-014 1.10325e-014
lhumerus -37.772 -0.498646 83.5832
lradius 37.286
lwrist -7.05462
lhand -17.9871 20.9811
lfingers 7.12502
lthumb 8.28275 50.7987
rfemur -31.0915 7.67907 22.5676
rtibia 43.8567
rfoot 11.0184 -19.1554
rtoes -20.2344
lfemur -40.2293 2.89138 -16.0008
ltibia 115.124
lfoot 17.1512 -23.8877
ltoes -9.27819
207
root 15.1895 19.3613 7.03685 8.25425 6.37875 1.74314
lowerback 8.24429 -0.353545 -0.00912071
upperback 1.66907 -0.483714 -0.504434
thorax -2.89843 -0.240275 -0.464568
lowerneck -19.4951 10.1213 11.0545
upperneck 12.6034 13.5434 -14.8724
head 8.9865 5.58033 -4.8905
rclavicle 1.65737e-014 -1.91827e-014
rhumerus -43.4118 2.93868 -87.5051
rradius 62.1858
rwrist -9.07577
rhand -18.2774 22.4177
rfingers 7.12502
rthumb 8.00257 -7.41079
lclavicle 1.65737e-014 -1.91827e-014
lhumerus -37.7277 -0.0748114 83.4882
lradius 36.6412
lwrist -6.20887
lhand -18.541 21.7426
lfingers 7.12502
lthumb 7.74815 51.5807
rfemur -30.3133 7.57992 22.5996
rtibia 43.0835
rfoot 11.0184 -19.1554
rtoes -20.2344
lfemur -41.2657 3.29894 -16.4598
ltibia 115.932
lfoot 15.8855 -24.7977
ltoes -11.6437
208
root 15.2028 19.3963 7.12486 8.40639 6.10428 1.79991
lowerback 8.13114 -0.306257 0.097839
upperback 1.56345 -0.416229 -0.622383
thorax -2.94579 -0.208355 -0.653907
lowerneck -18.7692 9.87046 11.5935
upperneck 12.0802 13.197 -15.6082
head 8.73836 5.42798 -5.30958
rclavicle -9.93923e-016 1.71452e-014
rhumerus -43.7942 3.36342 -87.8638
rradius 63.8338
rwrist -9.33628
rhand -18.2586 22.4931
rfingers 7.12502
rthumb 8.02077 -7.33474
lclavicle -9.93923e-016 1.71452e-014
lhumerus -37.7721 0.51261 83.3262
lradius 35.9172
lwrist -5.40474
lhand -19.0713 22.2487
lfingers 7.12502
lthumb 7.23633 52.105
rfemur -29.6808 7.28112 22.5698
rtibia 42.3011
rfoot 11.0184 -19.1554
rtoes -20.2344
lfemur -42.4599 3.6733 -17.0589
ltibia 116.733
lfoot 14.9315 -25.2607
ltoes -12.5028
209
root 15.2061 19.4164 7.19933 8.49064 5.74345 1.34767
lowerback 8.24902 -0.233087 0.509143
upperback 1.4513 -0.281599 -0.543812
thorax -3.12724 -0.145935 -0.817813
lowerneck -18.9554 9.90308 11.239
upperneck 12.3842 13.3201 -15.4006
head 8.8482 5.46899 -5.15672
rclavicle 2.00524e-014 -8.69683e-015
rhumerus -44.0459 4.06325 -88.2219
rradius 65.2427
rwrist -9.51842
rhand -18.5612 22.76
rfingers 7.12502
rthumb 7.72867 -7.0788
lclavicle 2.00524e-014 -8.69683e-015
lhumerus -37.9087 1.18631 83.1902
lradius 35.4211
lwrist -4.22706
lhand -19.7622 21.8672
lfingers 7.12502
lthumb 6.56936 51.7453
rfemur -29.1156 7.38518 23.089
rtibia 41.4834
rfoot 11.0184 -19.1554
rtoes -20.2344
lfemur -44.0475 4.58277 -16.8264
ltibia 117.732
lfoot 14.7608 -26.2406
ltoes -11.7134
210
root 15.199 19.4352 7.28501 8.3657 5.37853 0.95345
lowerback 8.48015 -0.137941 0.671864
upperback 1.38307 -0.137135 -0.459655
thorax -3.32406 -0.0766893 -0.837886
lowerneck -19.7923 10.0851 10.4019
upperneck 13.3593 13.6736 -14.4966
head 9.23406 5.60561 -4.63045
rclavicle -3.78933e-015 1.33186e-014
rhumerus -44.3419 4.91614 -88.6055
rradius 66.5435
rwrist -9.82368
rhand -18.6322 22.4617
rfingers 7.12502
rthumb 7.66012 -7.37961
lclavicle -3.78933e-015 1.33186e-014
lhumerus -38.138 1.85854 83.0168
lradius 35.0064
lwrist -3.04474
lhand -20.1349 21.6405
lfingers 7.12502
lthumb 6.20958 51.5295
rfemur -28.2764 7.66147 23.6073
rtibia 40.6011
rfoot 11.0184 -19.1554
rtoes -20.2344
lfemur -45.2532 5.68316 -16.497
ltibia 118.583
lfoot 14.0722 -27.0366
ltoes -11.1802
